<?xml version="1.0" encoding="UTF-8"?>
<svg xmlns="http://www.w3.org/2000/svg" xmlns:xlink="http://www.w3.org/1999/xlink" width="512px" height="512px" viewBox="-50 -50 612 612" version="1.1">
<g id="surface1">
<path d="M 82.132812 461.332031 C 68.101562 461.332031 56.148438 456.449219 46.277344 446.679688 C 36.402344 436.910156 31.464844 425.085938 31.464844 411.199219 L 31.464844 100.800781 C 31.464844 86.769531 36.402344 74.816406 46.277344 64.945312 C 56.148438 55.070312 68.101562 50.132812 82.132812 50.132812 L 392 50.132812 C 406.03125 50.132812 417.984375 55.070312 427.855469 64.945312 C 437.730469 74.816406 442.667969 86.769531 442.667969 100.800781 L 442.667969 128 L 480.535156 128 L 480.535156 165.867188 L 442.667969 165.867188 L 442.667969 236.800781 L 480.535156 236.800781 L 480.535156 275.199219 L 442.667969 275.199219 L 442.667969 346.132812 L 480.535156 346.132812 L 480.535156 384 L 442.667969 384 L 442.667969 411.199219 C 442.667969 425.085938 437.730469 436.910156 427.855469 446.679688 C 417.984375 456.449219 406.03125 461.332031 392 461.332031 Z M 82.132812 411.199219 L 392 411.199219 L 392 100.800781 L 82.132812 100.800781 Z M 108.800781 384 L 243.734375 384 L 243.734375 277.332031 L 108.800781 277.332031 Z M 259.734375 204.800781 L 364.800781 204.800781 L 364.800781 128 L 259.734375 128 Z M 108.800781 261.332031 L 243.734375 261.332031 L 243.734375 128 L 108.800781 128 Z M 259.734375 384 L 364.800781 384 L 364.800781 220.800781 L 259.734375 220.800781 Z M 82.132812 100.800781 L 82.132812 411.199219 Z M 82.132812 100.800781 "/>
</g>
</svg>
