<svg xmlns="http://www.w3.org/2000/svg" height="24" viewBox="0 -960 960 960" width="24"><path d="M161.196-111.869q-37.783 0-64.392-26.609-26.609-26.609-26.609-64.392v-554.26q0-37.783 26.61-64.392 26.608-26.609 64.391-26.609h554.021q37.783 0 64.392 26.609 26.609 26.609 26.609 64.392V-680h83.587v83.587h-83.587v74.5h83.587v83.826h-83.587v74.5h83.587V-280h-83.587v77.13q0 37.783-26.609 64.392-26.609 26.609-64.392 26.609H161.196Zm0-91.001h554.021v-554.26H161.196v554.26ZM238.087-280h200v-160h-200v160Zm240-280h160v-120h-160v120Zm-240 80h200v-200h-200v200Zm240 200h160v-240h-160v240ZM161.196-757.13v554.26-554.26Z"/></svg>